<?xml version="1.0" encoding="iso-8859-1"?>
<!-- Uploaded to: SVG Repo, www.svgrepo.com, Generator: SVG Repo Mixer Tools -->
<svg fill="#000000" height="800px" width="800px" version="1.1" id="Layer_1" xmlns="http://www.w3.org/2000/svg" xmlns:xlink="http://www.w3.org/1999/xlink" 
	 viewBox="0 0 512 512" xml:space="preserve">
<g>
	<g>
		<path d="M512,256c0-38.187-36.574-71.637-94.583-93.355c1.015-6.127,1.894-12.177,2.5-18.091
			c5.589-54.502-7.168-93.653-35.917-110.251c-9.489-5.478-20.378-8.26-32.341-8.26c-28.356,0-61.858,16.111-95.428,43.716
			c-27.187-22.434-54.443-37.257-79.275-42.01c-4.642-0.905-9.105,2.142-9.993,6.776c-0.879,4.625,2.15,9.096,6.775,9.975
			c21.282,4.079,45.15,17.109,69.308,36.702c-18.278,16.708-36.378,36.651-53.487,59.255c-28.561,3.447-55.031,9.088-78.592,16.529
			c-4.395-27.913-4.13-52.813,1.331-72.439c2.321,0.495,4.71,0.785,7.168,0.785c18.825,0,34.133-15.309,34.133-34.133
			c0-18.816-15.309-34.133-34.133-34.133S85.333,32.384,85.333,51.2c0,10.146,4.531,19.166,11.58,25.429
			c-7.305,23.347-7.996,52.915-2.475,86.067C36.514,184.414,0,217.839,0,256c0,37.12,34.765,70.784,94.447,93.099
			C84.25,410.206,94.933,458.615,128,477.713c9.489,5.478,20.378,8.252,32.35,8.252c28.382,0,61.918-16.136,95.505-43.785
			c27.469,22.682,54.733,37.385,79.206,42.078c0.538,0.102,1.084,0.154,1.613,0.154c4.011,0,7.595-2.842,8.38-6.921
			c0.879-4.634-2.15-9.105-6.776-9.992c-20.847-3.994-44.843-16.913-69.308-36.702c18.287-16.708,36.378-36.651,53.487-59.255
			c28.578-3.456,55.066-9.088,78.626-16.538c4.395,27.887,4.122,52.787-1.365,72.457c-2.33-0.503-4.719-0.794-7.185-0.794
			c-18.825,0-34.133,15.317-34.133,34.133c0,18.824,15.309,34.133,34.133,34.133c18.824,0,34.133-15.309,34.133-34.133
			c0-10.138-4.523-19.149-11.563-25.412c7.339-23.407,8.047-52.966,2.526-86.101C475.52,327.561,512,294.144,512,256z
			 M351.659,43.11c8.934,0,16.947,2.014,23.808,5.973c22.246,12.843,32.265,47.01,27.477,93.73
			c-0.478,4.625-1.22,9.395-1.963,14.157c-23.518-7.424-49.937-13.047-78.438-16.495c-17.041-22.613-35.029-42.675-53.248-59.383
			C298.846,57.148,327.791,43.11,351.659,43.11z M397.764,174.208c-4.139,19.396-10.266,39.603-18.202,60.186
			c-6.093-12.689-12.766-25.429-20.087-38.127c-7.313-12.681-15.036-24.815-22.997-36.437
			C358.519,163.328,379.153,168.209,397.764,174.208z M256.12,92.407c14.507,13.158,28.945,28.552,42.871,45.764
			c-13.952-1.058-28.297-1.638-42.991-1.638c-14.669,0-28.988,0.58-42.914,1.63C227.063,120.934,241.579,105.574,256.12,92.407z
			 M175.522,159.829c-7.97,11.614-15.676,23.782-22.98,36.446c-7.356,12.74-14.037,25.472-20.096,38.101
			c-7.987-20.727-14.148-40.986-18.278-60.143C132.804,168.218,153.455,163.337,175.522,159.829z M119.467,34.133
			c9.412,0,17.067,7.654,17.067,17.067c0,9.412-7.654,17.067-17.067,17.067c-9.404,0-17.067-7.654-17.067-17.067
			C102.4,41.788,110.063,34.133,119.467,34.133z M17.067,256c0-29.79,31.548-57.088,80.777-75.998
			c5.359,24.141,13.722,49.758,24.832,75.887c-11.264,26.419-19.61,52.113-24.934,76.194C47.283,312.619,17.067,284.774,17.067,256z
			 M255.923,419.576c-13.474-12.169-26.923-26.291-39.927-42.052c0.734-1.092,1.28-2.295,1.886-3.465
			c12.766,0.879,25.557,1.408,38.118,1.408c14.677,0,28.996-0.572,42.931-1.63C284.962,391.057,270.447,406.417,255.923,419.576z
			 M313.267,355.277c-18.415,2.031-37.606,3.123-57.267,3.123c-11.29,0-22.775-0.469-34.261-1.203
			c-0.648-18.253-15.59-32.93-34.005-32.93c-18.825,0-34.133,15.317-34.133,34.133c0,18.825,15.309,34.133,34.133,34.133
			c5.547,0,10.726-1.459,15.36-3.823c12.996,15.735,26.334,29.858,39.714,42.129c-29.585,23.996-58.573,38.059-82.458,38.059
			c-8.943,0-16.947-2.005-23.817-5.973c-25.813-14.899-33.673-55.91-25.404-108.041c4.659,1.468,9.455,2.876,14.37,4.215
			c4.523,1.237,9.233-1.451,10.479-5.99c1.237-4.548-1.442-9.233-5.999-10.47c-5.41-1.476-10.615-3.072-15.701-4.71
			c4.105-19.123,10.197-39.424,18.185-60.262c5.658,11.802,11.844,23.646,18.577,35.447c1.57,2.756,4.454,4.301,7.415,4.301
			c1.434,0,2.884-0.358,4.224-1.118c4.096-2.33,5.521-7.543,3.183-11.639c-9.207-16.128-17.391-32.418-24.516-48.58
			c7.467-17.007,16.128-34.21,25.975-51.268c9.796-16.973,20.378-33.058,31.42-48.085c18.423-2.022,37.598-3.123,57.259-3.123
			c19.686,0,38.886,1.101,57.327,3.132c11.017,15.036,21.572,31.112,31.369,48.068c9.796,16.964,18.458,34.116,25.967,51.106
			c-7.561,17.101-16.162,34.295-25.975,51.302C334.891,324.164,324.318,340.25,313.267,355.277z M204.8,358.4
			c0,4.796-1.997,9.122-5.197,12.22c-0.043,0.034-0.094,0.043-0.137,0.077c-0.051,0.034-0.068,0.094-0.119,0.137
			c-3.046,2.85-7.117,4.634-11.614,4.634c-9.404,0-17.067-7.654-17.067-17.067c0-9.412,7.663-17.067,17.067-17.067
			C197.146,341.333,204.8,348.988,204.8,358.4z M336.486,352.171c7.979-11.614,15.676-23.774,22.98-36.429
			c7.313-12.672,13.943-25.472,20.062-38.263c8.021,20.779,14.208,41.079,18.347,60.279
			C379.23,343.774,358.571,348.663,336.486,352.171z M392.533,477.867c-9.404,0-17.067-7.654-17.067-17.067
			c0-9.412,7.663-17.067,17.067-17.067c9.412,0,17.067,7.654,17.067,17.067C409.6,470.212,401.946,477.867,392.533,477.867z
			 M414.242,331.972c-5.376-24.192-13.815-49.877-24.977-76.075c10.991-25.899,19.354-51.516,24.738-75.955
			c49.314,18.91,80.93,46.234,80.93,76.058C494.933,285.773,463.428,313.062,414.242,331.972z"/>
	</g>
</g>
</svg>